<svg id="Layer_1" data-name="Layer 1" xmlns="http://www.w3.org/2000/svg" width="15" height="29"><defs><style>.cls-1{fill:#fff}</style></defs><path class="cls-1" transform="rotate(180 36.5 28)" d="M70 39h1v1h-1z"/><path class="cls-1" transform="rotate(180 35.5 27)" d="M69 38h1v1h-1z"/><path class="cls-1" transform="rotate(180 34.5 26)" d="M68 37h1v1h-1z"/><path class="cls-1" transform="rotate(180 39.5 31)" d="M73 42h1v1h-1z"/><path class="cls-1" transform="rotate(180 38.5 30)" d="M72 41h1v1h-1z"/><path class="cls-1" transform="rotate(180 37.5 29)" d="M71 40h1v1h-1z"/><path class="cls-1" transform="rotate(180 42.5 34)" d="M76 45h1v1h-1z"/><path class="cls-1" transform="rotate(180 41.5 33)" d="M75 44h1v1h-1z"/><path class="cls-1" transform="rotate(180 40.5 32)" d="M74 43h1v1h-1z"/><path class="cls-1" transform="rotate(180 45.5 37)" d="M79 48h1v1h-1z"/><path class="cls-1" transform="rotate(180 44.5 36)" d="M78 47h1v1h-1z"/><path class="cls-1" transform="rotate(180 43.5 35)" d="M77 46h1v1h-1z"/><path class="cls-1" transform="rotate(180 48.5 40)" d="M82 51h1v1h-1z"/><path class="cls-1" transform="rotate(180 47.5 39)" d="M81 50h1v1h-1z"/><path class="cls-1" transform="rotate(180 46.5 38)" d="M80 49h1v1h-1z"/><path class="cls-1" d="M0 14h1v1H0zm1-1h1v1H1zm1-1h1v1H2zm1-1h1v1H3zm1-1h1v1H4zm1-1h1v1H5zm1-1h1v1H6zm1-1h1v1H7zm1-1h1v1H8zm1-1h1v1H9zm1-1h1v1h-1zm1-1h1v1h-1zm1-1h1v1h-1zm1-1h1v1h-1zm1-1h1v1h-1z"/></svg>