<svg id="Layer_1" data-name="Layer 1" xmlns="http://www.w3.org/2000/svg" width="15" height="29"><defs><style>.cls-1{fill:#008e70}</style></defs><path class="cls-1" d="M12 16h1v1h-1zm1-1h1v1h-1zm1-1h1v1h-1zm-5 5h1v1H9zm1-1h1v1h-1zm1-1h1v1h-1zm-5 5h1v1H6zm1-1h1v1H7zm1-1h1v1H8zm-5 5h1v1H3zm1-1h1v1H4zm1-1h1v1H5zm-5 5h1v1H0zm1-1h1v1H1zm1-1h1v1H2z"/><path class="cls-1" transform="rotate(-180 48.5 26)" d="M82 37h1v1h-1z"/><path class="cls-1" transform="rotate(-180 47.5 25)" d="M81 36h1v1h-1z"/><path class="cls-1" transform="rotate(-180 46.5 24)" d="M80 35h1v1h-1z"/><path class="cls-1" transform="rotate(-180 45.5 23)" d="M79 34h1v1h-1z"/><path class="cls-1" transform="rotate(-180 44.5 22)" d="M78 33h1v1h-1z"/><path class="cls-1" transform="rotate(-180 43.5 21)" d="M77 32h1v1h-1z"/><path class="cls-1" transform="rotate(-180 42.5 20)" d="M76 31h1v1h-1z"/><path class="cls-1" transform="rotate(-180 41.5 19)" d="M75 30h1v1h-1z"/><path class="cls-1" transform="rotate(-180 40.5 18)" d="M74 29h1v1h-1z"/><path class="cls-1" transform="rotate(-180 39.5 17)" d="M73 28h1v1h-1z"/><path class="cls-1" transform="rotate(-180 38.5 16)" d="M72 27h1v1h-1z"/><path class="cls-1" transform="rotate(-180 37.5 15)" d="M71 26h1v1h-1z"/><path class="cls-1" transform="rotate(-180 36.5 14)" d="M70 25h1v1h-1z"/><path class="cls-1" transform="rotate(-180 35.5 13)" d="M69 24h1v1h-1z"/><path class="cls-1" transform="rotate(-180 34.5 12)" d="M68 23h1v1h-1z"/></svg>