<svg id="Layer_1" data-name="Layer 1" xmlns="http://www.w3.org/2000/svg" width="117" height="43"><defs><style>.cls-1{fill:#fff}</style></defs><path class="cls-1" d="M0 .08h5.21v14.8H0zm10.42 0h5.21v19.8h-5.21zm8.34 0h5.21v19.8h-5.21zm10.42 0h5.21v19.8h-5.21z"/><path class="cls-1" transform="rotate(90 23.69 17.27)" d="M21.08 31.58h5.21v3.38h-5.21z"/><path class="cls-1" d="M3 13.63h3.25v3.13H3zm18.89-6.26h10.42v5.21H21.89z"/><path d="M87.91 32.75s4.34 1.39 9.38-9.38 12.51-6.25 12.51-6.25-4.08-.52-8.34 5.21-1.48 5.3-6.25 9.38-7.3 1.04-7.3 1.04z" transform="translate(-16 -16)" fill="#8cc63f"/><path class="cls-1" d="M93 30.06h.5c1.17-1 2.46-3.63 3.8-6.49 2.93-6.26 6.67-7.47 9.3-7.29a10.15 10.15 0 0 0-1.48-.32 10 10 0 0 0-9.54 7.1H93v-7h-5v16.69s2 .69 5-2.69z" transform="translate(-16 -16)"/><path class="cls-1" d="M88 32.75v3.35h5v-3c-4 1.79-5-.35-5-.35zm21.49-15.64c-1 0-4.46.41-8 5.22-3.84 5.17-2 5.33-5.07 8.31a9.89 9.89 0 1 0 13.07-13.53zm-4.38 13.56A4.69 4.69 0 1 1 109.8 26a4.69 4.69 0 0 1-4.69 4.67zM58.69 26.5S58 21.29 66 21.29v-5.21S53.48 14.95 53.48 26.5 66 35.88 66 35.88v-5.21s-7.31.95-7.31-4.17zM77 16.08a8.5 8.5 0 0 0-8 5.21V36.1h5V24.42s.19-3.28 3.32-3.28a3.19 3.19 0 0 1 3.32 3H75v5h4v7h5V21.29s-.87-5.21-7-5.21z" transform="translate(-16 -16)"/><path class="cls-1" d="M107.14.08h.21v19.8h-5.21V5.08a5 5 0 0 1 5-5z"/><path class="cls-1" d="M128.56 16.1H123v6.23a2.57 2.57 0 0 1 2.46-2.23h1c1.15 0 1.49 1.08 1.49 2.23v1c0 1.15-.34 1.73-1.49 1.73H123v4h5.59s4.41-.51 4.41-5.73v-1s.68-6.23-4.44-6.23zM16 56.75v-9.63h1.92l2.28 6.82q.32 1 .46 1.43.16-.53.51-1.54l2.31-6.7h1.71v9.63H24v-8.07l-2.8 8.06H20l-2.79-8.2v8.2H16zm11.61 0v-9.63h7v1.14h-5.72v3h5.33v1.13h-5.33v3.28h5.91v1.14h-7.19zm10.16-9.63h5.86v8.5h.87V59h-1.14v-2.25H37V59h-1.14v-3.38h.75q1.16-1.75 1.16-7.09v-1.41zm4.59 1.14H39v.49q0 1.23-.22 3.36a11 11 0 0 1-.86 3.51h4.44v-7.36zm4.01-1.14h1.16v7.63l5.12-7.63h1.28v9.63h-1.16v-7.61l-5.13 7.61h-1.27v-9.63zm10 0h1.27v4.22a1.76 1.76 0 0 0 1.24-.34 5.65 5.65 0 0 0 .91-1.63 9 9 0 0 1 .65-1.37 2.06 2.06 0 0 1 .74-.66 2.14 2.14 0 0 1 1.06-.27H63v1.1h-.5a1.23 1.23 0 0 0-.91.3 4 4 0 0 0-.69 1.26 4.94 4.94 0 0 1-.82 1.54 2.55 2.55 0 0 1-.8.51 3.55 3.55 0 0 1 1.84 1.72l2 3.21h-1.6l-1.61-2.61a7.19 7.19 0 0 0-1.11-1.49 1.66 1.66 0 0 0-1.16-.4v4.51h-1.27v-9.6zm7.1 9.63l3.7-9.63h1.37l3.94 9.63H71l-1.12-2.92h-4l-1.06 2.92h-1.35zm2.78-4h3.27l-1-2.67q-.46-1.22-.68-2a12.32 12.32 0 0 1-.53 1.92zm8.59-5.63h6v9.63h-1.25v-8.5h-3.48v5a12.33 12.33 0 0 1-.11 2.18 1.88 1.88 0 0 1-.59 1.09 1.7 1.7 0 0 1-1.15.39 4 4 0 0 1-1-.16l.22-1.13a1.44 1.44 0 0 0 .54.13.73.73 0 0 0 .65-.33 3.33 3.33 0 0 0 .22-1.53v-6.77zm7.85 6.74v-1.19h3.63v1.19h-3.63zM89 47.12h5.86v8.5h.87V59h-1.15v-2.25h-6.36V59h-1.14v-3.38h.75Q89 53.86 89 48.53v-1.41zm4.59 1.14h-3.37v.49q0 1.23-.22 3.36a11 11 0 0 1-.86 3.51h4.44v-7.36zm4.01 8.49v-9.63h7v1.14h-5.73v3h5.33v1.13h-5.33v3.28h5.91v1.14H97.6zm9.32 0v-9.63h1.27v4h5v-4h1.27v9.63h-1.26v-4.54h-5v4.54h-1.27zm12.46 0v-8.5h-3.17v-1.13h7.63v1.14h-3.19v8.5h-1.27zm4.62 0l3.7-9.63h1.37l3.93 9.63h-1.45l-1.12-2.92h-4l-1.06 2.92H124zm2.78-4H130l-1-2.67q-.46-1.22-.68-2a12.32 12.32 0 0 1-.52 1.84z" transform="translate(-16 -16)"/></svg>