<svg id="Layer_1" data-name="Layer 1" xmlns="http://www.w3.org/2000/svg" width="12" height="20"><defs><style>.cls-1{fill:#999}</style></defs><path class="cls-1" d="M76 29a4.94 4.94 0 1 0 5 5 5 5 0 0 0-5-5zm0 7.35a2.41 2.41 0 1 1 2.46-2.42A2.43 2.43 0 0 1 76 36.35z" transform="translate(-70 -29)"/><path class="cls-1" d="M81.69 41.31a6.1 6.1 0 0 1-2.19 1.38 10.53 10.53 0 0 1-2.49.54l.27.28 3.45 3.38a1.09 1.09 0 0 1 .27 1.32 1.37 1.37 0 0 1-1.28.78 1.26 1.26 0 0 1-.81-.4c-.91-.86-1.76-1.7-2.61-2.59-.25-.25-.37-.21-.59 0q-1.31 1.32-2.65 2.6a1.13 1.13 0 0 1-1.34.23 1.32 1.32 0 0 1-.78-1.22 1.21 1.21 0 0 1 .42-.82l3.41-3.33.23-.22a7.88 7.88 0 0 1-4.14-1.44c-.15-.11-.3-.22-.44-.35a1.13 1.13 0 0 1-.16-1.63 1.2 1.2 0 0 1 1.57-.34 2.43 2.43 0 0 1 .34.2 6.93 6.93 0 0 0 7.53.07 2 2 0 0 1 .73-.37 1.16 1.16 0 0 1 1.32.51 1.07 1.07 0 0 1-.06 1.42z" transform="translate(-70 -29)"/></svg>