<svg data-name="Layer 1" xmlns="http://www.w3.org/2000/svg" width="20" height="20"><path d="M11.54 11.54c-2 2-4.27 3.87-5.18 3-1.3-1.3-2.1-2.43-5-.13s-.66 3.83.59 5.09c1.45 1.45 6.86.08 12.2-5.27S20.91 3.45 19.46 2c-1.26-1.26-2.78-3.45-5.08-.59s-1.17 3.66.13 5c.9.86-.99 3.15-2.97 5.13z" fill="#008e70"/><path d="M3.71 19a1.43 1.43 0 0 1-1-.25l-.42-.4A3.29 3.29 0 0 1 1 16.55a2.3 2.3 0 0 1 1-1.4 3.88 3.88 0 0 1 2.07-1.1 2.29 2.29 0 0 1 1.33.93l.22.23a1.81 1.81 0 0 0 1.31.53c.83 0 2.19-.4 5.28-3.49 2.22-2.22 4.57-5 3-6.59L15 5.43c-1.1-1.08-1.43-1.41.17-3.4a2.37 2.37 0 0 1 1.42-1 3.4 3.4 0 0 1 1.77 1.28l.4.42c.29.29.46 1.52-.31 3.58a21.48 21.48 0 0 1-4.95 7.21C9.68 17.3 5.84 19 3.71 19z" fill="#333"/></svg>