<svg data-name="Layer 1" xmlns="http://www.w3.org/2000/svg" width="17" height="10"><path d="M14.12 4.9s2.24-3.17 2.46-4.22a.43.43 0 0 0-.47-.58h-1.94a.71.71 0 0 0-.74.48 17.7 17.7 0 0 1-2.33 3.67 1.27 1.27 0 0 1-.85.6c-.18 0-.27-.15-.27-.57V.66c0-.51-.06-.66-.47-.66H6.39A.34.34 0 0 0 6 .33c0 .48.73.58.73 1.88v2.67c0 .54 0 .75-.28.75-.67 0-2.25-2.31-3.14-4.93a.78.78 0 0 0-.88-.7H.49A.46.46 0 0 0 0 .48C0 1 .61 3.42 3 6.65A7.36 7.36 0 0 0 8.6 10c1.16 0 1.44-.19 1.44-.69V7.65c0-.42.16-.6.4-.6s.74.09 1.84 1.18c1.31 1.25 1.4 1.77 2.11 1.77h2.18a.4.4 0 0 0 .43-.48 5.29 5.29 0 0 0-1.62-2.41c-.4-.54-1.05-1.12-1.26-1.39a.54.54 0 0 1 0-.82z" fill="#999"/></svg>