<svg id="Layer_1" data-name="Layer 1" xmlns="http://www.w3.org/2000/svg" width="17" height="30" viewBox="0 0 17 30"><defs><style>.cls-1{fill:#fff;}</style></defs><title>arrow-1st-screen-down</title><rect class="cls-1" x="8" width="1" height="30"/><rect class="cls-1" x="7" y="28" width="3" height="1"/><rect class="cls-1" x="10" y="27" width="1" height="1"/><rect class="cls-1" x="6" y="27" width="1" height="1"/><rect class="cls-1" x="5" y="26" width="1" height="1"/><rect class="cls-1" x="11" y="26" width="1" height="1"/><rect class="cls-1" x="4" y="25" width="1" height="1"/><rect class="cls-1" x="12" y="25" width="1" height="1"/><rect class="cls-1" x="3" y="24" width="1" height="1"/><rect class="cls-1" x="2" y="23" width="1" height="1"/><rect class="cls-1" x="1" y="22" width="1" height="1"/><rect class="cls-1" y="21" width="1" height="1"/><rect class="cls-1" x="13" y="24" width="1" height="1"/><rect class="cls-1" x="14" y="23" width="1" height="1"/><rect class="cls-1" x="15" y="22" width="1" height="1"/><rect class="cls-1" x="16" y="21" width="1" height="1"/></svg>