<svg id="Layer_1" data-name="Layer 1" xmlns="http://www.w3.org/2000/svg" width="15" height="29" viewBox="0 0 15 29"><defs><style>.cls-1{fill:#fff;}</style></defs><title>arrow-1st-screen-right</title><rect class="cls-1" x="12" y="16" width="1" height="1"/><rect class="cls-1" x="13" y="15" width="1" height="1"/><rect class="cls-1" x="14" y="14" width="1" height="1"/><rect class="cls-1" x="9" y="19" width="1" height="1"/><rect class="cls-1" x="10" y="18" width="1" height="1"/><rect class="cls-1" x="11" y="17" width="1" height="1"/><rect class="cls-1" x="6" y="22" width="1" height="1"/><rect class="cls-1" x="7" y="21" width="1" height="1"/><rect class="cls-1" x="8" y="20" width="1" height="1"/><rect class="cls-1" x="3" y="25" width="1" height="1"/><rect class="cls-1" x="4" y="24" width="1" height="1"/><rect class="cls-1" x="5" y="23" width="1" height="1"/><rect class="cls-1" y="28" width="1" height="1"/><rect class="cls-1" x="1" y="27" width="1" height="1"/><rect class="cls-1" x="2" y="26" width="1" height="1"/><rect class="cls-1" x="82" y="37" width="1" height="1" transform="translate(97 52) rotate(-180)"/><rect class="cls-1" x="81" y="36" width="1" height="1" transform="translate(95 50) rotate(-180)"/><rect class="cls-1" x="80" y="35" width="1" height="1" transform="translate(93 48) rotate(-180)"/><rect class="cls-1" x="79" y="34" width="1" height="1" transform="translate(91 46) rotate(-180)"/><rect class="cls-1" x="78" y="33" width="1" height="1" transform="translate(89 44) rotate(-180)"/><rect class="cls-1" x="77" y="32" width="1" height="1" transform="translate(87 42) rotate(-180)"/><rect class="cls-1" x="76" y="31" width="1" height="1" transform="translate(85 40) rotate(-180)"/><rect class="cls-1" x="75" y="30" width="1" height="1" transform="translate(83 38) rotate(-180)"/><rect class="cls-1" x="74" y="29" width="1" height="1" transform="translate(81 36) rotate(-180)"/><rect class="cls-1" x="73" y="28" width="1" height="1" transform="translate(79 34) rotate(-180)"/><rect class="cls-1" x="72" y="27" width="1" height="1" transform="translate(77 32) rotate(-180)"/><rect class="cls-1" x="71" y="26" width="1" height="1" transform="translate(75 30) rotate(-180)"/><rect class="cls-1" x="70" y="25" width="1" height="1" transform="translate(73 28) rotate(-180)"/><rect class="cls-1" x="69" y="24" width="1" height="1" transform="translate(71 26) rotate(-180)"/><rect class="cls-1" x="68" y="23" width="1" height="1" transform="translate(69 24) rotate(-180)"/></svg>