<svg id="Layer_1" data-name="Layer 1" xmlns="http://www.w3.org/2000/svg" width="15" height="29" viewBox="0 0 15 29"><defs><style>.cls-1{fill:#fff;}</style></defs><title>arrow-1st-screen-left</title><rect class="cls-1" x="70" y="39" width="1" height="1" transform="translate(73 56) rotate(180)"/><rect class="cls-1" x="69" y="38" width="1" height="1" transform="translate(71 54) rotate(180)"/><rect class="cls-1" x="68" y="37" width="1" height="1" transform="translate(69 52) rotate(180)"/><rect class="cls-1" x="73" y="42" width="1" height="1" transform="translate(79 62) rotate(180)"/><rect class="cls-1" x="72" y="41" width="1" height="1" transform="translate(77 60) rotate(180)"/><rect class="cls-1" x="71" y="40" width="1" height="1" transform="translate(75 58) rotate(180)"/><rect class="cls-1" x="76" y="45" width="1" height="1" transform="translate(85 68) rotate(180)"/><rect class="cls-1" x="75" y="44" width="1" height="1" transform="translate(83 66) rotate(180)"/><rect class="cls-1" x="74" y="43" width="1" height="1" transform="translate(81 64) rotate(180)"/><rect class="cls-1" x="79" y="48" width="1" height="1" transform="translate(91 74) rotate(180)"/><rect class="cls-1" x="78" y="47" width="1" height="1" transform="translate(89 72) rotate(180)"/><rect class="cls-1" x="77" y="46" width="1" height="1" transform="translate(87 70) rotate(180)"/><rect class="cls-1" x="82" y="51" width="1" height="1" transform="translate(97 80) rotate(180)"/><rect class="cls-1" x="81" y="50" width="1" height="1" transform="translate(95 78) rotate(180)"/><rect class="cls-1" x="80" y="49" width="1" height="1" transform="translate(93 76) rotate(180)"/><rect class="cls-1" y="14" width="1" height="1"/><rect class="cls-1" x="1" y="13" width="1" height="1"/><rect class="cls-1" x="2" y="12" width="1" height="1"/><rect class="cls-1" x="3" y="11" width="1" height="1"/><rect class="cls-1" x="4" y="10" width="1" height="1"/><rect class="cls-1" x="5" y="9" width="1" height="1"/><rect class="cls-1" x="6" y="8" width="1" height="1"/><rect class="cls-1" x="7" y="7" width="1" height="1"/><rect class="cls-1" x="8" y="6" width="1" height="1"/><rect class="cls-1" x="9" y="5" width="1" height="1"/><rect class="cls-1" x="10" y="4" width="1" height="1"/><rect class="cls-1" x="11" y="3" width="1" height="1"/><rect class="cls-1" x="12" y="2" width="1" height="1"/><rect class="cls-1" x="13" y="1" width="1" height="1"/><rect class="cls-1" x="14" width="1" height="1"/></svg>