<svg id="Layer_1" data-name="Layer 1" xmlns="http://www.w3.org/2000/svg" width="117" height="43" viewBox="0 0 117 43"><defs><style>.cls-1{fill:#fff;}.cls-2{fill:#8cc63f;}</style></defs><title>insayur-logo</title><rect class="cls-1" y="0.08" width="5.21" height="14.8"/><rect class="cls-1" x="10.42" y="0.08" width="5.21" height="19.8"/><rect class="cls-1" x="18.76" y="0.08" width="5.21" height="19.8"/><rect class="cls-1" x="29.18" y="0.08" width="5.21" height="19.8"/><rect class="cls-1" x="21.08" y="31.58" width="5.21" height="3.38" transform="translate(40.96 -6.42) rotate(90)"/><rect class="cls-1" x="3" y="13.63" width="3.25" height="3.13"/><rect class="cls-1" x="21.89" y="7.37" width="10.42" height="5.21"/><path class="cls-2" d="M87.91,32.75s4.34,1.39,9.38-9.38,12.51-6.25,12.51-6.25-4.08-.52-8.34,5.21-1.48,5.3-6.25,9.38S87.91,32.75,87.91,32.75Z" transform="translate(-16 -16)"/><path class="cls-1" d="M93,30.06v0H93.5c1.17-1,2.46-3.63,3.8-6.49,2.93-6.26,6.67-7.47,9.3-7.29a10.15,10.15,0,0,0-1.48-.32,10,10,0,0,0-9.54,7.1H93v-7H88V32.75S90,33.44,93,30.06Z" transform="translate(-16 -16)"/><path class="cls-1" d="M88,32.75V36.1h5v-3C89,34.89,88,32.75,88,32.75Z" transform="translate(-16 -16)"/><path class="cls-1" d="M109.49,17.11c-1,0-4.46.41-8,5.22-3.84,5.17-2,5.33-5.07,8.31A9.89,9.89,0,1,0,109.49,17.11Zm-4.38,13.56A4.69,4.69,0,1,1,109.8,26,4.69,4.69,0,0,1,105.11,30.67Z" transform="translate(-16 -16)"/><path class="cls-1" d="M58.69,26.5S58,21.29,66,21.29V16.08S53.48,14.95,53.48,26.5,66,35.88,66,35.88V30.67S58.69,31.62,58.69,26.5Z" transform="translate(-16 -16)"/><path class="cls-1" d="M77,16.08a8.5,8.5,0,0,0-8,5.21V36.1h5V24.42s0.19-3.28,3.32-3.28a3.19,3.19,0,0,1,3.32,3H75v5h4v7h5V21.29S83.13,16.08,77,16.08Z" transform="translate(-16 -16)"/><path class="cls-1" d="M107.14,0.08h0.21a0,0,0,0,1,0,0v19.8a0,0,0,0,1,0,0h-5.21a0,0,0,0,1,0,0V5.08A5,5,0,0,1,107.14.08Z"/><path class="cls-1" d="M128.56,16.1H123v6.23a2.57,2.57,0,0,1,2.46-2.23h1c1.15,0,1.49,1.08,1.49,2.23v1c0,1.15-.34,1.73-1.49,1.73H123v4h5.59s4.41-.51,4.41-5.73v-1S133.68,16.1,128.56,16.1Z" transform="translate(-16 -16)"/><path class="cls-1" d="M16,56.75V47.12h1.92l2.28,6.82q0.32,1,.46,1.43,0.16-.53.51-1.54l2.31-6.7h1.71v9.63H24V48.69l-2.8,8.06H20l-2.79-8.2v8.2H16Z" transform="translate(-16 -16)"/><path class="cls-1" d="M27.61,56.75V47.12h7v1.14H28.89v3h5.33v1.13H28.89v3.28H34.8v1.14H27.61Z" transform="translate(-16 -16)"/><path class="cls-1" d="M37.77,47.12h5.86v8.5H44.5V59H43.36V56.75H37V59H35.86V55.62h0.75q1.16-1.75,1.16-7.09V47.12Zm4.59,1.14H39v0.49q0,1.23-.22,3.36a11,11,0,0,1-.86,3.51h4.44V48.26Z" transform="translate(-16 -16)"/><path class="cls-1" d="M46.37,47.12h1.16v7.63l5.12-7.63h1.28v9.63H52.77V49.14l-5.13,7.61H46.37V47.12Z" transform="translate(-16 -16)"/><path class="cls-1" d="M56.37,47.12h1.27v4.22A1.76,1.76,0,0,0,58.88,51a5.65,5.65,0,0,0,.91-1.63A9,9,0,0,1,60.44,48a2.06,2.06,0,0,1,.74-0.66,2.14,2.14,0,0,1,1.06-.27H63v1.1H62.5a1.23,1.23,0,0,0-.91.3,4,4,0,0,0-.69,1.26,4.94,4.94,0,0,1-.82,1.54,2.55,2.55,0,0,1-.8.51,3.55,3.55,0,0,1,1.84,1.72l2,3.21H61.52l-1.61-2.61a7.19,7.19,0,0,0-1.11-1.49,1.66,1.66,0,0,0-1.16-.4v4.51H56.37V47.12Z" transform="translate(-16 -16)"/><path class="cls-1" d="M63.47,56.75l3.7-9.63h1.37l3.94,9.63H71l-1.12-2.92h-4l-1.06,2.92H63.47Zm2.78-4h3.27l-1-2.67q-0.46-1.22-.68-2A12.32,12.32,0,0,1,67.31,50Z" transform="translate(-16 -16)"/><path class="cls-1" d="M74.84,47.12h6v9.63H79.59v-8.5H76.11v5A12.33,12.33,0,0,1,76,55.43a1.88,1.88,0,0,1-.59,1.09,1.7,1.7,0,0,1-1.15.39,4,4,0,0,1-1-.16l0.22-1.13a1.44,1.44,0,0,0,.54.13,0.73,0.73,0,0,0,.65-0.33,3.33,3.33,0,0,0,.22-1.53V47.12Z" transform="translate(-16 -16)"/><path class="cls-1" d="M82.69,53.86V52.67h3.63v1.19H82.69Z" transform="translate(-16 -16)"/><path class="cls-1" d="M89,47.12h5.86v8.5h0.87V59H94.58V56.75H88.22V59H87.08V55.62h0.75Q89,53.86,89,48.53V47.12Zm4.59,1.14H90.22v0.49q0,1.23-.22,3.36a11,11,0,0,1-.86,3.51h4.44V48.26Z" transform="translate(-16 -16)"/><path class="cls-1" d="M97.6,56.75V47.12h7v1.14H98.87v3h5.33v1.13H98.87v3.28h5.91v1.14H97.6Z" transform="translate(-16 -16)"/><path class="cls-1" d="M106.92,56.75V47.12h1.27v4h5v-4h1.27v9.63H113.2V52.21h-5v4.54h-1.27Z" transform="translate(-16 -16)"/><path class="cls-1" d="M119.38,56.75v-8.5h-3.17V47.12h7.63v1.14h-3.19v8.5h-1.27Z" transform="translate(-16 -16)"/><path class="cls-1" d="M124,56.75l3.7-9.63h1.37L133,56.75h-1.45l-1.12-2.92h-4l-1.06,2.92H124Zm2.78-4H130l-1-2.67q-0.46-1.22-.68-2a12.32,12.32,0,0,1-.52,1.84Z" transform="translate(-16 -16)"/></svg>