<svg id="Layer_1" data-name="Layer 1" xmlns="http://www.w3.org/2000/svg" width="20" height="20" viewBox="0 0 20 20"><defs><style>.cls-1{fill:#999;}</style></defs><title>insta</title><path class="cls-1" d="M86,35.66a9.9,9.9,0,0,0-.38-2.9,5.18,5.18,0,0,0-1.79-2.54,5.48,5.48,0,0,0-2.21-1A11.86,11.86,0,0,0,79.3,29c-1.86-.05-3.72,0-5.57,0a18.84,18.84,0,0,0-3,.18,5.31,5.31,0,0,0-4.58,5.07C66,35.05,66,35.84,66,36.63c0,1.1,0,2.19,0,3.29s0,2.3.08,3.45a7.18,7.18,0,0,0,.45,2.18,5.19,5.19,0,0,0,1,1.65,4.78,4.78,0,0,0,1.22,1,6.21,6.21,0,0,0,2,.67,7.66,7.66,0,0,0,.86.09l0.8,0c2.64,0,5.28.07,7.92-.06a7,7,0,0,0,1.84-.34,5.2,5.2,0,0,0,1.94-1.12,5.33,5.33,0,0,0,1.56-2.81A11.72,11.72,0,0,0,86,42.33Q86,39,86,35.66Zm-1.79,6.76a8.31,8.31,0,0,1-.2,2,3.46,3.46,0,0,1-.67,1.39,3.4,3.4,0,0,1-2,1.21,7.86,7.86,0,0,1-1.41.16c-2.13.09-4.27,0-6.4,0a20.19,20.19,0,0,1-2.1-.09A3.51,3.51,0,0,1,67.95,44a18.7,18.7,0,0,1-.15-2.72c0-.61,0-1.23,0-1.84,0-1.61,0-3.23.08-4.84a5,5,0,0,1,.3-1.46,3.27,3.27,0,0,1,2-2,5.93,5.93,0,0,1,1.8-.31c1.94-.09,3.88,0,5.82-0.05,0.66,0,1.32,0,2,0a7.23,7.23,0,0,1,1.81.25A3.39,3.39,0,0,1,84,33.85a9.5,9.5,0,0,1,.15,1.71C84.22,37.85,84.22,40.14,84.17,42.43Z" transform="translate(-66 -29)"/><path class="cls-1" d="M75.12,34a5,5,0,0,0-3.95,3.28,5.44,5.44,0,0,0-.27,1.06,5.37,5.37,0,0,0,0,.75,5.27,5.27,0,0,0,.29,1.64,4.94,4.94,0,0,0,1,1.72,5.13,5.13,0,0,0,8.14-.62,5.2,5.2,0,0,0,.79-2.2,5,5,0,0,0-.22-2.16A5.1,5.1,0,0,0,75.12,34Zm3.69,6.83a2.64,2.64,0,0,1-.42.52,3.55,3.55,0,0,1-.61.51A3.34,3.34,0,0,1,73.3,41a3.28,3.28,0,0,1-.64-1.83,3.34,3.34,0,0,1,6.64-.63A3.14,3.14,0,0,1,78.81,40.79Z" transform="translate(-66 -29)"/><path class="cls-1" d="M81.3,32.48a1.2,1.2,0,1,0,1.21,1.19A1.2,1.2,0,0,0,81.3,32.48Z" transform="translate(-66 -29)"/></svg>