<svg id="Layer_1" data-name="Layer 1" xmlns="http://www.w3.org/2000/svg" width="12" height="20" viewBox="0 0 12 20"><defs><style>.cls-1{fill:#008e70;}.cls-2{fill:#333;}</style></defs><title>location</title><path class="cls-1" d="M74,24a6.12,6.12,0,0,0-6,6.24c0,6,6,13.76,6,13.76s6-7.79,6-13.76A6.12,6.12,0,0,0,74,24Zm0,9a3,3,0,1,1,3-3A3,3,0,0,1,74,33Z" transform="translate(-68 -24)"/><path class="cls-2" d="M74,42.29c-1.59-2.3-5-7.76-5-12a5,5,0,1,1,10,0C79,34.53,75.59,40,74,42.29ZM74,26a4,4,0,1,0,4,4A4,4,0,0,0,74,26Z" transform="translate(-68 -24)"/></svg>