<svg id="Layer_1" data-name="Layer 1" xmlns="http://www.w3.org/2000/svg" width="12" height="20" viewBox="0 0 12 20"><defs><style>.cls-1{fill:#999;}</style></defs><title>odnoklassniki</title><path class="cls-1" d="M76,29a4.94,4.94,0,1,0,5,5A5,5,0,0,0,76,29Zm0,7.35a2.41,2.41,0,1,1,2.46-2.42A2.43,2.43,0,0,1,76,36.35Z" transform="translate(-70 -29)"/><path class="cls-1" d="M81.69,41.31a6.1,6.1,0,0,1-2.19,1.38,10.53,10.53,0,0,1-2.49.54l0.27,0.28,3.45,3.38A1.09,1.09,0,0,1,81,48.21a1.37,1.37,0,0,1-1.28.78,1.26,1.26,0,0,1-.81-0.4C78,47.73,77.15,46.89,76.3,46c-0.25-.25-0.37-0.21-0.59,0q-1.31,1.32-2.65,2.6a1.13,1.13,0,0,1-1.34.23,1.32,1.32,0,0,1-.78-1.22,1.21,1.21,0,0,1,.42-0.82l3.41-3.33L75,43.24a7.88,7.88,0,0,1-4.14-1.44c-0.15-.11-0.3-0.22-0.44-0.35a1.13,1.13,0,0,1-.16-1.63,1.2,1.2,0,0,1,1.57-.34,2.43,2.43,0,0,1,.34.2,6.93,6.93,0,0,0,7.53.07,2,2,0,0,1,.73-0.37,1.16,1.16,0,0,1,1.32.51A1.07,1.07,0,0,1,81.69,41.31Z" transform="translate(-70 -29)"/></svg>