<svg id="Layer_1" data-name="Layer 1" xmlns="http://www.w3.org/2000/svg" width="20" height="20" viewBox="0 0 20 20"><defs><style>.cls-1{fill:#008e70;}.cls-2{fill:#333;}</style></defs><title>phone</title><path class="cls-1" d="M74.54,36.54c-2,2-4.27,3.87-5.18,3-1.3-1.3-2.1-2.43-5-.13s-0.66,3.83.59,5.09c1.45,1.45,6.86.08,12.2-5.27S83.91,28.45,82.46,27c-1.26-1.26-2.78-3.45-5.08-.59s-1.17,3.66.13,5C78.41,32.27,76.52,34.56,74.54,36.54Z" transform="translate(-63 -25)"/><path class="cls-2" d="M66.71,44a1.43,1.43,0,0,1-1-.25l-0.42-.4A3.29,3.29,0,0,1,64,41.55a2.3,2.3,0,0,1,1-1.4,3.88,3.88,0,0,1,2.07-1.1,2.29,2.29,0,0,1,1.33.93l0.22,0.23a1.81,1.81,0,0,0,1.31.53c0.83,0,2.19-.4,5.28-3.49,2.22-2.22,4.57-5,3-6.59L78,30.43c-1.1-1.08-1.43-1.41.17-3.4a2.37,2.37,0,0,1,1.42-1,3.4,3.4,0,0,1,1.77,1.28l0.4,0.42c0.29,0.29.46,1.52-.31,3.58a21.48,21.48,0,0,1-4.95,7.21C72.68,42.3,68.84,44,66.71,44Z" transform="translate(-63 -25)"/></svg>