<svg id="Layer_1" data-name="Layer 1" xmlns="http://www.w3.org/2000/svg" width="17" height="10" viewBox="0 0 17 10"><defs><style>.cls-1{fill:#fff;}</style></defs><title>vk-hover</title><path class="cls-1" d="M81.12,37.9s2.24-3.17,2.46-4.22a0.43,0.43,0,0,0-.47-0.58H81.17a0.71,0.71,0,0,0-.74.48,17.7,17.7,0,0,1-2.33,3.67,1.27,1.27,0,0,1-.85.6c-0.18,0-.27-0.15-0.27-0.57V33.66c0-.51-0.06-0.66-0.47-0.66H73.39a0.34,0.34,0,0,0-.39.33c0,0.48.73,0.58,0.73,1.88v2.67c0,0.54,0,.75-0.28.75-0.67,0-2.25-2.31-3.14-4.93A0.78,0.78,0,0,0,69.43,33H67.49a0.46,0.46,0,0,0-.49.48c0,0.52.61,2.94,3,6.17A7.36,7.36,0,0,0,75.6,43c1.16,0,1.44-.19,1.44-0.69V40.65c0-.42.16-0.6,0.4-0.6s0.74,0.09,1.84,1.18C80.59,42.48,80.68,43,81.39,43h2.18A0.4,0.4,0,0,0,84,42.52a5.29,5.29,0,0,0-1.62-2.41c-0.4-.54-1.05-1.12-1.26-1.39A0.54,0.54,0,0,1,81.12,37.9Z" transform="translate(-67 -33)"/></svg>