<svg version="1" xmlns="http://www.w3.org/2000/svg" width="834.667" height="834.667" viewBox="0 0 626 626"><path d="M433.2 2.1c-4.8 2.4-9.1 8-10.1 13.1-.7 3.3-.8 3.3-7.6 4-21.6 2.2-34.1 4.9-50.5 10.8-17.8 6.6-40 19.9-53.7 32.4-3.3 3.1-6.5 5.6-7 5.6s-2-1.2-3.4-2.6c-3.7-4.1-15.7-13.5-22.9-18.1-21.4-13.7-49.3-23.7-73.2-26.3-54.1-5.7-102.7 11-139.9 48-48.9 48.9-66 119-45.8 188 4 13.5 9.5 25 21 43 15.1 23.9 20.7 35.4 24.1 49 2.1 8.8 1.7 84.5-.7 111-2.7 31.7-1.2 47.9 6.5 68 3.9 10 11.7 24.4 17.2 31.7 2.4 3.1 5.2 6.8 6.3 8.2 4 5.4 18.3 19 26 24.8 17 12.9 37.3 23.7 56.6 30.2 11 3.8 14.3 3.5 21.8-2 6.9-4.9 7.8-8.2 9-32.5 1.3-24.1 3.2-42.3 6.2-57.4 9.4-48.4 25.6-84.4 49.1-109.5 16.3-17.5 36-24.8 53.8-20 20.2 5.4 39.4 24.3 55.4 54.7 13.1 24.6 21.8 53.3 27.6 89.9 1.3 8.8 4 41.7 4 50 0 7.4.4 7.8 6.8 8 7.7.1 8 1.6.5 2.4-6.6.7-7.3 1-7.3 2.9 0 3 4 10.1 7 12.4 3.1 2.3 8.4 4.2 12.1 4.2 5.4 0 27.3-8.7 43.4-17.4 30.1-16.1 54.9-41.4 69-70.6 11.7-24 14.5-45.2 11-82.5-2-22.4-3.1-80.6-1.7-95 1.9-19 6.1-29.3 22.8-55.7 13.5-21.3 19.7-33.6 23.4-46.2 5.4-18.7 8-33.6 8.7-50.9.6-14.6.7-15.7 2.5-15.7 2.8 0 10-5.5 12.3-9.3 1.9-3 2-5.7 2.3-47.4.4-48 0-53.1-4.5-59-5.2-6.8-7.4-7.3-37.5-7.3h-26.6l-.4-27.3c-.4-31-.7-32.6-8.9-38.3L533.7.5 485.6.2c-47.5-.2-48.2-.2-52.4 1.9zM509 64.2c0 14.5.5 27.9 1 29.8 1.1 4.1 6 9.3 10.5 11.1 2.1.9 11.5 1.5 30 1.9l27 .5v47l-27.5.5c-23.1.4-28 .8-30.5 2.2-4.4 2.4-8.4 7-9.5 10.9-.6 1.8-1 15.2-1 29.6V224h-47.9l-.3-26.8c-.3-26.4-.3-26.8-2.9-31.7-1.8-3.6-3.8-5.7-7-7.5-4.3-2.5-4.9-2.5-31.9-3l-27.5-.5v-47l27-.5c30-.6 31.5-.9 37.2-7.3 4.5-5.2 5.3-10.6 5.3-37.7V38h48v26.2zm-299.4-4.1c28.1 5.4 50.4 17.6 71.8 39.3 6.5 6.7 13 12.9 14.5 13.8 3 2.1 13 2.4 16.4.7 1.2-.6 7.2-6.2 13.2-12.3 10.8-10.9 20.9-19.2 28.7-23.6l3.9-2.2-2 3.8c-2 3.7-2.1 5.4-2.1 51.2 0 46.4 0 47.4 2.1 51.5 2.3 4.4 3.5 5.7 8.4 8.5 2.6 1.5 6.9 1.8 30.5 2.2l27.5.5.5 28.1c.5 27.9.5 28.1 3 31.7 1.3 2 4.1 4.5 6.1 5.6 3.6 2 5.1 2.1 51.8 2.1 53.1 0 52.2.1 57.8-6.3 4.5-5.2 5.3-10.6 5.3-37.8v-24l6.8.3 6.7.3-.1 12.5c-.1 14.2-1.3 21.9-5.6 37.5-3.4 12.5-5.1 16-14.4 31.2-3.7 5.9-9 14.6-11.9 19.3-19.3 31.4-23.5 49-23.5 97.9 0 22.2 1.9 59 4.1 80.6 1.3 13 .7 20.9-2.6 32.9-4.9 17.7-14.2 32.9-28.7 47.2-9.8 9.5-15.8 14-29.1 21.7l-8.2 4.7-.7-4.7c-.4-2.7-1.2-9.9-1.8-16.2-7.9-81.8-41.6-153.1-85.5-181.2-7.7-4.9-9.3-5.8-15.6-8.4-25.7-10.5-53.3-8.2-77.5 6.5-36.5 22.2-65.7 71.9-80.7 137.5-3.2 13.6-7.4 41.8-8.2 54.5-.4 5.2-.9 10.1-1.1 10.8-.3 1-2.5.2-8-2.8-30.4-16.7-51.3-41.2-59.3-69.5-3.1-11.1-3.4-17-1.7-38.1 4.1-52.7 4.8-88 2.1-112.4-3.2-28.8-7.1-38.1-34.2-81.1-7.6-12.1-10.5-18.6-14.3-32.2-4.2-15.1-5.3-23.7-5.4-41.7 0-18 1.7-28.6 7-45.2 14.3-44.4 46.7-77.9 87.9-91.1 8.8-2.8 21.2-5.4 29-6.1 9.2-.7 26.5.4 37.1 2.5zm213.2 2.6l-.3 5.8-25.2.3c-13.9.1-25.3-.1-25.3-.6 0-.4 4.2-2.2 9.3-4 10.3-3.7 27.2-7 36-7.1l5.8-.1-.3 5.7z"/><path d="M173 88.9c-41.4 5.9-74.4 34.8-87.8 77.1-6.7 20.9-6.7 46.2-.2 69 3.1 10.8 5.5 15.3 18.1 35 8.8 13.8 17.7 30.6 21.5 40.6 3 8 6.1 14.3 8.3 16.8 2.6 3 8.7 5.6 13.1 5.6 15 0 22.9-13.6 16.6-28.8-1.3-3.1-2.7-6.8-3.1-8.2-2.5-8.2-14.5-30.5-26-48.5-12.5-19.6-15.5-28.7-15.5-47 0-39 27.5-71.6 62.5-74.2 10.3-.7 15.5-3 19.4-8.4 2.7-3.7 3.1-5 3.1-10.8-.1-5.5-.5-7.2-2.8-10.5-5-7.2-13.5-9.6-27.2-7.7z"/></svg>