<?xml version="1.0" standalone="no"?>
<!DOCTYPE svg PUBLIC "-//W3C//DTD SVG 20010904//EN"
 "http://www.w3.org/TR/2001/REC-SVG-20010904/DTD/svg10.dtd">
<svg version="1.0" xmlns="http://www.w3.org/2000/svg"
 width="626.000000pt" height="626.000000pt" viewBox="0 0 626.000000 626.000000"
 preserveAspectRatio="xMidYMid meet">
<metadata>
Created by potrace 1.11, written by Peter Selinger 2001-2013
</metadata>
<g transform="translate(0.000000,626.000000) scale(0.100000,-0.100000)"
fill="#000000" stroke="none">
<path d="M4332 6239 c-48 -24 -91 -80 -101 -131 -7 -33 -8 -33 -76 -40 -216
-22 -341 -49 -505 -108 -178 -66 -400 -199 -537 -324 -33 -31 -65 -56 -70 -56
-5 0 -20 12 -34 26 -37 41 -157 135 -229 181 -214 137 -493 237 -732 263 -541
57 -1027 -110 -1399 -480 -489 -489 -660 -1190 -458 -1880 40 -135 95 -250
210 -430 151 -239 207 -354 241 -490 21 -88 17 -845 -7 -1110 -27 -317 -12
-479 65 -680 39 -100 117 -244 172 -317 24 -31 52 -68 63 -82 40 -54 183 -190
260 -248 170 -129 373 -237 566 -302 110 -38 143 -35 218 20 69 49 78 82 90
325 13 241 32 423 62 574 94 484 256 844 491 1095 163 175 360 248 538 200
202 -54 394 -243 554 -547 131 -246 218 -533 276 -899 13 -88 40 -417 40 -500
0 -74 4 -78 68 -80 77 -1 80 -16 5 -24 -66 -7 -73 -10 -73 -29 0 -30 40 -101
70 -124 31 -23 84 -42 121 -42 54 0 273 87 434 174 301 161 549 414 690 706
117 240 145 452 110 825 -20 224 -31 806 -17 950 19 190 61 293 228 557 135
213 197 336 234 462 54 187 80 336 87 509 6 146 7 157 25 157 28 0 100 55 123
93 19 30 20 57 23 474 4 480 0 531 -45 590 -52 68 -74 73 -375 73 l-266 0 -4
273 c-4 310 -7 326 -89 383 l-42 29 -481 3 c-475 2 -482 2 -524 -19z m758
-621 c0 -145 5 -279 10 -298 11 -41 60 -93 105 -111 21 -9 115 -15 300 -19
l270 -5 0 -235 0 -235 -275 -5 c-231 -4 -280 -8 -305 -22 -44 -24 -84 -70 -95
-109 -6 -18 -10 -152 -10 -296 l0 -263 -239 0 -240 0 -3 268 c-3 264 -3 268
-29 317 -18 36 -38 57 -70 75 -43 25 -49 25 -319 30 l-275 5 0 235 0 235 270
5 c300 6 315 9 372 73 45 52 53 106 53 377 l0 240 240 0 240 0 0 -262z m-2994
41 c281 -54 504 -176 718 -393 65 -67 130 -129 145 -138 30 -21 130 -24 164
-7 12 6 72 62 132 123 108 109 209 192 287 236 l39 22 -20 -38 c-20 -37 -21
-54 -21 -512 0 -464 0 -474 21 -515 23 -44 35 -57 84 -85 26 -15 69 -18 305
-22 l275 -5 5 -281 c5 -279 5 -281 30 -317 13 -20 41 -45 61 -56 36 -20 51
-21 518 -21 531 0 522 -1 578 63 45 52 53 106 53 378 l0 240 68 -3 67 -3 -1
-125 c-1 -142 -13 -219 -56 -375 -34 -125 -51 -160 -144 -312 -37 -59 -90
-146 -119 -193 -193 -314 -235 -490 -235 -979 0 -222 19 -590 41 -806 13 -130
7 -209 -26 -329 -49 -177 -142 -329 -287 -472 -98 -95 -158 -140 -291 -217
l-82 -47 -7 47 c-4 27 -12 99 -18 162 -79 818 -416 1531 -855 1812 -77 49 -93
58 -156 84 -257 105 -533 82 -775 -65 -365 -222 -657 -719 -807 -1375 -32
-136 -74 -418 -82 -545 -4 -52 -9 -101 -11 -108 -3 -10 -25 -2 -80 28 -304
167 -513 412 -593 695 -31 111 -34 170 -17 381 41 527 48 880 21 1124 -32 288
-71 381 -342 811 -76 121 -105 186 -143 322 -42 151 -53 237 -54 417 0 180 17
286 70 452 143 444 467 779 879 911 88 28 212 54 290 61 92 7 265 -4 371 -25z
m2132 -26 l-3 -58 -252 -3 c-139 -1 -253 1 -253 6 0 4 42 22 93 40 103 37 272
70 360 71 l58 1 -3 -57z"/>
<path d="M1730 5371 c-414 -59 -744 -348 -878 -771 -67 -209 -67 -462 -2 -690
31 -108 55 -153 181 -350 88 -138 177 -306 215 -406 30 -80 61 -143 83 -168
26 -30 87 -56 131 -56 150 0 229 136 166 288 -13 31 -27 68 -31 82 -25 82
-145 305 -260 485 -125 196 -155 287 -155 470 0 390 275 716 625 742 103 7
155 30 194 84 27 37 31 50 31 108 -1 55 -5 72 -28 105 -50 72 -135 96 -272 77z"/>
</g>
</svg>
